<?xml version="1.0" standalone="no"?>
<!DOCTYPE svg PUBLIC "-//W3C//DTD SVG 20010904//EN"
 "http://www.w3.org/TR/2001/REC-SVG-20010904/DTD/svg10.dtd">
<svg version="1.0" xmlns="http://www.w3.org/2000/svg"
 width="512.000000pt" height="512.000000pt" viewBox="0 0 512.000000 512.000000"
 preserveAspectRatio="xMidYMid meet">
<metadata>
Created by potrace 1.11, written by Peter Selinger 2001-2013
</metadata>
<g transform="translate(0.000000,512.000000) scale(0.100000,-0.100000)"
fill="#000000" stroke="none">
<path d="M1198 5103 c-3 -10 -1 -28 3 -40 5 -12 4 -25 0 -28 -5 -3 -5 -20 -1
-39 l8 -35 -59 1 c-32 1 -61 -1 -64 -4 -4 -3 -22 -2 -41 2 -18 4 -34 5 -34 1
0 -7 -106 -5 -126 3 -8 3 -14 1 -14 -4 0 -5 -12 -5 -27 -1 -16 4 -40 4 -55 0
-16 -4 -28 -3 -28 1 0 5 -13 5 -30 0 -16 -5 -30 -6 -30 -2 0 8 -88 7 -96 -1
-3 -2 -21 -1 -40 3 -18 4 -34 5 -34 1 0 -7 -119 -5 -127 3 -3 3 -13 1 -22 -4
-10 -5 -23 -5 -31 0 -7 4 -24 4 -36 0 -14 -6 -26 -5 -29 0 -4 7 -13 7 -24 0
-10 -5 -21 -7 -24 -4 -8 9 -107 10 -107 2 0 -4 -7 -5 -15 -2 -23 9 -45 -14
-37 -39 6 -20 7 -55 2 -82 -1 -5 -1 -28 -1 -50 1 -22 1 -50 1 -62 -1 -80 2
-103 11 -103 5 0 9 -36 9 -80 0 -44 4 -80 9 -80 14 0 18 -30 10 -67 -5 -22 -2
-36 7 -44 8 -7 14 -30 14 -55 0 -23 4 -45 9 -48 5 -3 11 -15 14 -26 3 -11 2
-18 -2 -16 -4 3 -5 -11 -3 -30 2 -19 8 -34 13 -34 5 0 9 -16 9 -35 0 -19 6
-40 14 -47 9 -9 11 -20 5 -35 -6 -16 -4 -27 6 -37 8 -8 15 -28 15 -45 0 -17 4
-39 9 -49 14 -28 28 -65 42 -112 7 -25 23 -67 36 -94 12 -27 20 -53 17 -58 -3
-4 0 -8 5 -8 6 0 11 -9 11 -20 0 -11 6 -23 14 -26 8 -3 12 -12 9 -20 -3 -7 2
-16 10 -20 9 -3 13 -12 10 -20 -3 -8 0 -14 6 -14 6 0 11 -9 11 -20 0 -11 5
-20 10 -20 6 0 10 -9 10 -20 0 -11 5 -20 10 -20 6 0 10 -9 10 -20 0 -11 5 -20
10 -20 6 0 10 -8 10 -18 0 -10 9 -24 20 -32 11 -8 20 -20 20 -28 0 -15 26 -57
58 -91 12 -13 22 -28 22 -32 0 -13 229 -239 242 -239 6 0 16 -7 22 -14 6 -8
17 -16 25 -18 8 -2 27 -15 42 -30 15 -15 29 -24 32 -22 7 7 47 -16 68 -38 9
-10 24 -18 33 -18 9 0 16 -4 16 -10 0 -5 9 -10 19 -10 11 0 23 -5 26 -10 4 -6
11 -8 16 -5 5 4 9 1 9 -5 0 -6 8 -13 18 -16 32 -11 107 -49 110 -56 2 -5 10
-8 17 -8 8 0 20 -6 27 -12 7 -7 18 -13 23 -13 15 -1 89 -39 93 -47 2 -5 12 -8
22 -8 10 0 21 -8 24 -17 5 -12 10 -13 18 -5 12 12 41 4 32 -9 -3 -5 -2 -9 3
-10 35 -3 91 -28 65 -29 -7 0 -10 -5 -7 -10 3 -6 -1 -13 -9 -16 -8 -3 -18 -14
-21 -25 -4 -10 -11 -19 -16 -19 -6 0 -7 5 -4 10 3 6 4 10 1 10 -3 0 -10 -9
-16 -20 -9 -17 -8 -19 7 -13 17 7 17 6 0 -11 -9 -10 -14 -23 -10 -29 4 -7 -5
-4 -19 5 -17 11 -29 14 -33 8 -4 -6 -3 -10 2 -9 22 4 25 -2 7 -17 -18 -14 -18
-15 4 -4 15 7 22 7 22 0 0 -5 -6 -10 -12 -10 -10 0 -9 -3 1 -9 11 -7 9 -11 -8
-20 -11 -7 -21 -17 -21 -23 0 -6 6 -5 17 3 14 12 14 11 -1 -13 -10 -16 -16
-35 -12 -43 7 -19 -14 -15 -31 5 -11 13 -12 12 -6 -4 5 -15 3 -17 -8 -11 -8 5
-11 5 -6 -1 5 -5 14 -9 20 -9 7 0 12 -14 12 -32 1 -24 -2 -29 -11 -22 -8 7
-14 6 -19 -1 -4 -6 -3 -10 2 -9 4 1 16 -1 25 -5 20 -9 14 -28 -6 -20 -7 3 -13
-1 -13 -9 0 -9 9 -12 26 -10 l26 4 -24 -14 -24 -15 21 -6 c12 -4 27 -17 33
-28 8 -15 8 -18 0 -14 -7 4 -9 1 -5 -8 3 -9 10 -14 16 -13 6 1 12 -6 13 -16 2
-10 -1 -15 -8 -11 -7 3 -4 -1 7 -10 10 -8 15 -19 12 -25 -4 -5 -2 -13 4 -16 6
-4 9 -1 8 6 -4 16 24 19 35 4 5 -6 7 0 4 13 -3 12 -1 20 4 16 5 -3 9 0 9 6 0
6 4 9 8 6 12 -7 29 7 37 33 4 13 3 21 -1 18 -5 -3 -9 23 -9 58 0 35 3 61 7 59
5 -3 8 -1 8 5 0 5 -6 12 -12 15 -7 3 1 4 17 1 24 -4 27 -3 13 5 -10 6 -18 18
-18 26 0 9 -5 12 -12 8 -7 -5 -8 -3 -3 6 6 10 12 8 27 -9 21 -27 23 -23 5 13
-8 14 -17 23 -21 19 -4 -4 -4 0 0 10 3 9 14 17 23 17 11 0 12 -3 4 -8 -8 -5
-6 -14 8 -32 17 -21 19 -22 10 -3 -14 28 -14 36 2 27 9 -6 9 -4 -1 8 -8 10 -9
19 -3 22 5 3 11 3 14 -1 2 -5 2 -2 1 5 -2 6 2 12 9 12 8 0 8 3 -2 9 -8 5 -9
11 -3 15 11 7 25 -21 16 -35 -3 -5 0 -17 6 -26 9 -15 10 -14 4 7 -6 23 -6 24
12 10 18 -14 18 -14 5 3 -11 14 -11 20 0 35 12 15 12 16 -2 5 -13 -10 -16 -10
-16 1 0 9 10 12 29 11 32 -3 45 -11 34 -22 -4 -4 -11 -2 -15 6 -6 10 -10 9
-15 -4 -9 -24 -7 -32 4 -15 7 11 10 11 10 2 0 -7 4 -11 9 -7 5 3 12 -3 15 -12
4 -15 5 -15 4 2 0 11 0 25 1 31 1 13 31 15 31 2 0 -5 5 -6 11 -2 7 4 6 -2 -1
-17 l-13 -24 23 20 c13 11 20 14 16 8 -4 -8 -1 -13 8 -13 9 0 16 -7 16 -16 0
-10 5 -14 16 -10 8 3 12 2 9 -4 -3 -5 3 -18 15 -30 11 -11 15 -20 10 -20 -12
0 -9 -22 5 -32 6 -4 1 -8 -9 -8 -11 0 -16 -3 -13 -7 10 -9 -43 -42 -58 -37 -6
3 -18 -3 -26 -12 -8 -10 -9 -15 -2 -11 6 4 13 4 16 0 2 -5 2 -1 0 7 -3 12 -2
13 8 2 10 -9 10 -15 1 -24 -7 -7 -12 -8 -12 -4 0 5 -8 2 -17 -5 -14 -12 -16
-12 -8 0 5 10 4 12 -3 7 -7 -4 -12 -2 -12 5 0 7 -3 10 -6 7 -3 -4 0 -16 6 -28
8 -15 8 -20 1 -16 -6 4 -11 0 -11 -10 0 -14 -2 -14 -17 3 -10 10 -15 14 -10 9
11 -15 9 -28 -4 -20 -7 4 -7 -2 1 -17 7 -13 9 -21 5 -17 -5 5 -14 -1 -22 -12
-8 -11 -21 -20 -29 -20 -8 0 -14 -5 -14 -11 0 -5 4 -8 9 -4 5 3 13 0 17 -6 4
-7 3 -9 -3 -6 -11 7 -28 -20 -24 -37 1 -4 -3 -14 -9 -21 -5 -6 -11 -24 -12
-38 -1 -14 -6 -23 -11 -20 -4 2 -5 -6 -2 -20 5 -17 2 -26 -10 -31 -10 -3 -15
-12 -12 -20 3 -8 2 -17 -4 -20 -5 -2 -4 -3 3 -2 7 2 12 10 10 20 -2 9 1 16 6
16 17 0 22 -13 10 -27 -8 -10 -8 -20 1 -39 7 -16 7 -23 1 -19 -7 4 -9 -3 -6
-19 2 -14 -1 -27 -7 -30 -7 -2 -4 -5 5 -5 15 -1 16 -5 8 -28 -10 -27 -9 -27 6
-8 16 20 16 20 9 -4 -6 -18 -4 -22 6 -16 11 6 11 5 2 -5 -9 -10 -8 -16 3 -28
8 -8 13 -20 11 -26 -3 -7 5 -13 16 -14 12 0 27 -8 33 -17 10 -14 13 -14 25 1
8 10 12 18 9 20 -3 1 -1 6 4 11 5 5 6 3 2 -4 -4 -8 -1 -13 8 -13 9 0 15 3 15
8 -3 20 2 32 12 26 8 -4 9 0 4 15 -3 12 -3 20 2 19 4 -2 8 2 8 7 0 5 -4 9 -8
7 -5 -1 -6 2 -3 7 4 5 15 8 26 6 12 -2 18 0 15 6 -4 5 -10 7 -14 5 -4 -3 -13
-1 -21 5 -13 7 -12 9 3 9 9 0 17 5 17 11 0 5 -4 7 -10 4 -5 -3 -10 -3 -11 2 0
4 -2 16 -4 26 -2 12 1 17 9 14 7 -3 19 -1 27 5 11 8 10 9 -3 4 -11 -3 -22 2
-28 14 -6 12 -7 20 -1 20 5 0 11 -5 13 -12 3 -7 7 -5 11 6 4 9 3 15 -3 11 -5
-3 -14 5 -21 17 -11 21 -11 22 4 9 10 -7 17 -10 17 -5 0 5 7 0 15 -10 8 -11
15 -15 15 -9 0 13 -30 39 -30 27 0 -5 -4 -2 -10 6 -6 9 -5 19 3 29 7 8 11 16
10 18 -11 14 1 13 19 -3 20 -17 21 -17 8 -1 -12 16 -12 20 1 28 10 8 7 9 -11
4 -19 -5 -22 -4 -10 4 8 6 12 11 7 11 -4 0 -1 10 8 23 8 13 12 27 8 31 -5 4
-3 7 2 6 6 -1 19 -2 30 -1 17 1 18 3 5 11 -13 8 -12 10 3 10 9 0 17 5 17 11 0
5 -5 7 -12 3 -6 -4 -3 4 8 18 10 14 22 24 27 21 4 -2 7 0 7 6 0 6 7 8 15 4 9
-3 15 -2 14 3 -4 23 3 26 21 9 11 -10 17 -21 15 -26 -3 -4 -1 -10 4 -13 10 -7
9 20 -2 30 -4 4 -1 14 6 23 11 14 10 14 -5 2 -12 -9 -18 -10 -18 -2 0 10 7 13
26 10 4 0 10 5 14 11 4 7 8 1 8 -14 0 -15 -5 -23 -11 -19 -6 3 -7 1 -3 -6 10
-15 29 -3 22 14 -7 19 33 41 72 40 39 -2 52 -13 32 -25 -12 -8 -12 -10 3 -16
9 -3 15 -9 12 -13 -2 -4 2 -8 10 -8 19 0 19 7 0 21 -10 8 -12 15 -5 26 8 13
10 12 10 -2 0 -10 5 -18 11 -18 5 0 7 5 3 12 -4 7 -3 8 5 4 6 -4 9 -18 7 -32
-3 -17 -1 -22 7 -17 20 12 47 10 60 -5 14 -18 17 -162 3 -162 -5 0 -2 -6 9
-13 13 -10 15 -16 6 -21 -6 -4 -9 -12 -6 -17 4 -5 0 -9 -7 -9 -10 0 -10 -2 1
-9 8 -5 12 -18 8 -30 -3 -12 -1 -21 4 -21 5 0 5 -10 1 -22 -10 -29 -9 -79 1
-96 5 -6 4 -12 -1 -12 -5 0 -8 -11 -7 -25 2 -14 -2 -25 -8 -26 -7 0 -3 -4 8
-9 11 -5 15 -9 8 -9 -6 -1 -10 -10 -8 -21 2 -11 0 -20 -6 -20 -5 0 -9 -7 -9
-16 0 -10 -6 -14 -15 -10 -8 3 -14 2 -14 -2 3 -18 -2 -32 -10 -29 -5 1 -10 -2
-11 -8 -2 -15 -29 -27 -43 -19 -8 5 -7 2 2 -9 7 -9 12 -17 10 -18 -2 0 -12 -2
-22 -4 -22 -4 -35 -15 -18 -15 9 0 9 -4 -1 -14 -7 -8 -16 -12 -20 -9 -5 2 -8
-2 -8 -10 0 -8 -10 -19 -22 -26 -23 -11 -23 -11 2 -5 l25 7 -25 -21 c-14 -12
-21 -21 -17 -22 5 0 1 -7 -7 -16 -13 -12 -13 -18 -3 -29 7 -8 16 -10 21 -4 14
13 29 11 20 -2 -3 -6 5 -3 20 6 25 17 26 17 20 -1 -5 -18 -5 -18 10 0 16 20
16 20 16 0 1 -18 1 -18 11 -1 6 9 14 15 19 12 6 -3 18 8 29 25 14 24 20 28 24
16 4 -9 3 -23 0 -33 -5 -12 -3 -14 7 -8 9 6 11 4 4 -6 -4 -7 -8 -31 -7 -51 1
-21 -2 -38 -6 -38 -4 0 -14 -18 -21 -40 -7 -22 -17 -40 -22 -40 -4 0 -8 -7 -8
-15 0 -17 -130 -152 -142 -148 -11 4 -48 -29 -42 -38 2 -4 -5 -5 -16 -2 -11 3
-20 0 -20 -6 0 -6 -9 -11 -21 -11 -11 0 -30 -5 -42 -12 -12 -6 -34 -11 -49
-10 -16 1 -28 -2 -28 -8 0 -5 8 -10 18 -11 34 -2 78 0 110 4 17 2 32 1 32 -3
0 -4 16 -4 35 0 19 4 35 4 35 0 0 -5 13 -5 29 0 16 4 32 6 35 3 7 -7 163 -6
176 2 5 3 10 2 10 -3 0 -6 14 -7 35 -2 19 4 35 4 35 0 0 -5 13 -5 29 0 16 4
32 6 34 3 7 -7 95 -8 102 -1 3 3 22 2 41 -2 18 -4 34 -5 34 -1 0 7 119 5 127
-3 3 -3 13 -1 22 4 10 5 23 5 31 0 7 -4 24 -4 36 0 14 6 26 5 29 0 4 -7 13 -7
24 0 10 5 21 7 24 4 5 -6 87 -8 112 -4 9 2 29 2 100 -1 53 -2 66 1 60 12 -4 5
-17 9 -28 8 -12 -2 -37 5 -54 14 -20 11 -33 13 -33 7 0 -6 -7 -4 -16 4 -8 9
-22 16 -30 16 -8 0 -14 4 -14 8 0 5 -12 15 -27 23 -60 31 -181 168 -168 189 3
5 2 10 -4 10 -6 0 -13 11 -17 25 -3 14 -10 25 -15 25 -6 0 -10 19 -9 43 1 83
0 90 -11 103 -9 11 -15 86 -9 119 4 24 1 95 -5 105 -3 5 -2 10 2 10 10 0 9 53
-2 69 -3 6 -1 11 4 11 13 0 10 22 -4 32 -6 5 -6 8 2 8 7 0 10 12 8 33 l-4 32
23 -28 c19 -23 24 -26 29 -13 7 17 37 11 37 -6 0 -6 -7 -8 -15 -4 -20 7 -19 4
7 -18 16 -14 20 -15 15 -3 -3 9 1 18 9 21 22 9 24 8 24 -10 0 -8 4 -13 8 -10
11 7 72 -31 72 -44 0 -5 -5 -10 -11 -10 -5 0 -7 5 -3 11 3 6 -5 3 -20 -6 -22
-14 -28 -35 -10 -35 3 0 2 4 -1 10 -3 5 -3 10 2 11 21 2 49 7 63 10 10 3 14
-2 12 -14 -2 -11 4 -17 15 -17 15 0 16 -2 3 -10 -11 -7 -18 -3 -28 13 -11 19
-12 19 -7 2 4 -11 8 -28 11 -39 5 -25 17 -36 12 -11 -2 12 3 21 15 23 9 2 17
-2 17 -8 0 -6 -3 -9 -7 -7 -5 3 -9 -6 -9 -19 -1 -16 3 -24 15 -24 14 0 14 2 1
11 -12 9 -13 10 0 7 15 -5 23 -58 7 -58 -5 0 -7 7 -4 14 4 10 1 13 -8 10 -18
-7 -8 -34 14 -34 9 -1 3 -7 -14 -16 -16 -8 -22 -12 -13 -10 22 7 33 -11 18
-29 -6 -8 -8 -20 -4 -27 6 -11 5 -11 -8 0 -13 10 -18 10 -24 1 -5 -8 -3 -9 6
-4 10 6 12 4 7 -8 -4 -10 -1 -17 6 -17 7 0 8 -3 2 -8 -5 -4 -16 -17 -23 -30
-10 -18 -10 -22 0 -22 8 0 9 -3 3 -8 -16 -12 -39 -56 -24 -47 8 5 10 4 5 -4
-5 -7 -9 -23 -11 -36 -2 -22 1 -23 28 -18 20 4 28 3 24 -4 -4 -6 1 -17 11 -24
15 -13 16 -12 3 4 -7 9 -12 17 -10 18 2 0 18 3 34 5 29 5 29 5 10 -11 -19 -16
-19 -16 6 -2 20 12 29 13 39 4 10 -9 11 -9 5 2 -6 11 -4 13 8 8 19 -7 33 10
35 41 0 14 -3 20 -10 16 -7 -5 -8 -2 -2 7 4 8 10 22 11 32 2 9 4 25 6 35 1 9
5 22 8 27 4 6 5 18 4 28 -2 9 1 15 5 12 5 -3 7 -14 5 -25 -2 -12 0 -18 5 -15
9 5 6 37 -5 54 -3 5 -1 12 5 16 6 3 7 20 4 38 -3 18 -7 46 -8 63 -2 17 -6 36
-10 42 -5 8 -1 10 11 6 10 -3 7 2 -7 10 -14 8 -21 15 -16 16 6 0 5 5 -1 11 -6
6 -9 18 -6 25 3 9 -1 14 -12 14 -9 0 -14 4 -10 10 3 5 -3 18 -15 30 -14 14
-16 20 -6 20 8 0 17 7 20 16 5 14 4 15 -9 4 -11 -9 -19 -10 -26 -3 -8 8 -7 13
2 18 8 6 10 4 4 -6 -5 -8 -4 -10 0 -6 12 11 15 37 4 37 -5 0 -9 -4 -9 -10 0
-5 -5 -10 -11 -10 -6 0 -9 6 -6 13 3 8 1 20 -3 28 -5 8 -4 20 3 29 9 12 9 13
-3 2 -17 -14 -34 -16 -25 -2 3 6 -1 10 -11 10 -14 0 -14 2 -3 16 8 10 15 12
17 5 5 -15 19 -14 19 2 0 7 -11 13 -23 13 -12 0 -21 -3 -19 -6 2 -4 -2 -7 -9
-7 -10 0 -12 8 -6 28 5 15 5 30 2 34 -4 4 1 12 10 19 16 12 16 14 -7 26 -13 7
-22 17 -19 21 2 4 0 10 -6 14 -5 3 -10 -1 -10 -9 0 -8 8 -20 18 -25 9 -6 12
-11 5 -11 -13 0 -14 -40 0 -40 4 0 5 -5 1 -11 -4 -8 -9 -7 -15 2 -4 7 -5 17
-3 21 3 4 1 8 -5 8 -5 0 -8 9 -6 20 2 11 1 20 -3 20 -4 0 -8 9 -8 19 0 11 5
19 11 18 5 -1 9 6 9 15 -1 10 4 14 12 11 12 -4 12 -8 2 -21 -11 -13 -10 -14
12 -7 21 7 23 6 13 -7 -12 -14 -8 -28 9 -28 9 0 6 29 -5 46 -4 7 0 17 8 24 12
10 13 8 10 -9 -4 -22 9 -29 20 -11 8 13 25 3 25 -13 0 -9 -2 -9 -8 -1 -5 9
-10 8 -19 -2 -8 -8 -9 -15 -3 -19 6 -3 10 -1 10 6 0 7 3 9 7 6 3 -4 12 -2 20
4 8 7 13 8 13 1 0 -5 -10 -17 -22 -26 -23 -16 -23 -16 -1 -6 12 5 24 14 27 19
9 14 45 1 57 -21 8 -15 13 -17 25 -7 13 11 19 5 14 -16 -1 -5 5 -4 12 4 10 11
10 14 1 18 -7 3 -13 9 -13 14 0 6 6 7 13 2 18 -11 59 -12 80 -1 13 6 23 5 35
-4 10 -8 13 -9 9 -1 -5 8 10 20 43 35 27 13 50 26 50 31 0 4 -9 3 -20 -3 -28
-15 -25 -5 5 14 14 9 31 13 38 9 16 -10 41 -14 32 -5 -4 4 -12 7 -18 7 -7 0
-12 8 -12 18 0 9 3 16 7 15 14 -5 37 37 27 49 -7 7 -6 13 1 18 5 3 10 1 10 -6
0 -7 3 -10 6 -6 3 3 2 12 -2 19 -20 32 -13 43 26 39 11 -1 10 3 -4 14 -11 8
-16 15 -10 15 5 0 2 4 -6 10 -23 14 -4 23 22 10 l23 -12 -23 22 c-19 18 -22
28 -17 62 5 31 3 38 -7 32 -11 -6 -11 -5 0 8 11 14 11 21 -3 42 -10 14 -14 26
-11 26 4 0 -2 10 -14 22 -11 12 -20 29 -20 39 0 9 -7 20 -16 23 -15 6 -15 4
-3 -11 11 -14 9 -13 -13 2 -16 12 -25 26 -23 35 3 9 -1 7 -10 -4 -9 -12 -15
-15 -15 -7 0 8 -6 11 -16 7 -9 -3 -12 -2 -9 4 4 6 12 9 18 8 7 -1 28 7 47 17
19 11 37 20 40 20 21 6 39 18 35 25 -3 5 4 6 15 3 12 -3 20 0 20 7 0 8 9 11
24 8 15 -3 27 0 30 8 3 7 15 14 28 16 13 2 22 9 21 15 -1 6 6 9 17 6 11 -3 20
0 20 6 0 6 9 11 20 11 11 0 20 3 20 8 0 4 27 18 60 32 33 14 60 28 60 33 0 4
9 7 20 7 11 0 20 3 20 8 0 4 27 18 60 32 33 14 60 28 60 33 0 4 7 7 15 7 8 0
25 10 37 22 13 13 27 23 33 23 15 0 75 38 75 47 0 4 9 8 20 8 11 0 27 11 36
25 9 14 20 22 25 19 10 -6 239 220 239 236 0 6 14 24 30 42 17 17 30 37 30 43
0 7 7 16 16 19 13 5 14 9 4 21 -9 11 -10 15 -1 15 17 0 41 26 41 44 0 9 3 16
8 16 4 0 18 27 32 60 14 33 28 60 33 60 4 0 7 9 7 20 0 11 5 20 10 20 6 0 10
9 10 20 0 11 5 20 11 20 6 0 9 9 6 20 -3 11 -1 18 3 15 11 -7 29 26 23 41 -2
7 5 27 16 45 12 19 21 44 21 57 0 12 5 22 10 22 6 0 10 11 10 25 0 14 4 33 9
43 27 54 33 73 29 101 -3 18 0 29 6 28 6 -1 11 13 12 31 0 18 6 38 12 44 7 7
12 29 12 49 0 21 5 39 10 41 6 2 11 25 12 51 0 26 4 50 9 53 5 3 9 25 9 49 0
24 5 47 10 50 6 4 10 26 9 50 -2 24 2 49 8 57 10 11 18 80 26 216 1 23 5 42 9
42 4 0 5 6 2 14 -8 22 -10 146 -2 146 4 0 4 10 0 23 -5 12 -7 32 -6 44 1 19
-4 22 -53 25 -30 1 -57 0 -59 -3 -2 -4 -20 -3 -39 1 -19 4 -35 5 -35 1 0 -7
-106 -5 -126 3 -8 3 -14 1 -14 -4 0 -5 -12 -5 -27 -1 -16 4 -40 4 -55 0 -16
-4 -28 -3 -28 1 0 5 -14 5 -30 0 -16 -5 -30 -6 -30 -2 0 8 -88 7 -96 -1 -3 -2
-21 -1 -40 3 -18 4 -34 5 -34 1 0 -7 -119 -5 -127 3 -3 3 -13 1 -22 -4 -10 -5
-23 -5 -31 0 -7 4 -24 4 -36 0 -14 -6 -26 -5 -29 0 -4 7 -13 7 -24 0 -10 -5
-21 -7 -24 -4 -8 8 -101 9 -114 1 -23 -15 -45 19 -46 71 0 28 2 55 6 58 3 3 3
12 0 20 -4 12 -207 14 -1363 14 -1286 0 -1359 -1 -1362 -17z m2822 -462 c0 5
11 4 25 -1 15 -6 26 -6 30 1 4 5 11 6 17 3 10 -6 49 -7 151 -1 20 1 37 -1 37
-4 0 -4 16 -3 35 1 19 4 35 4 35 0 0 -5 12 -5 28 -1 15 5 36 5 46 1 11 -4 36
-4 55 0 20 3 48 3 64 -1 15 -4 27 -3 27 1 0 5 14 5 30 0 21 -6 30 -5 30 3 0 8
3 8 11 0 6 -6 17 -9 25 -6 16 6 22 -47 11 -102 -5 -22 -11 -62 -13 -90 -3 -27
-9 -59 -14 -70 -17 -42 -20 -57 -10 -75 7 -13 6 -20 -6 -24 -12 -5 -15 -17
-12 -50 2 -26 -1 -44 -7 -43 -5 1 -10 -13 -11 -31 0 -18 -6 -38 -12 -44 -7 -7
-12 -24 -12 -38 0 -15 -3 -30 -7 -34 -12 -12 -33 -80 -33 -108 0 -16 -4 -28
-10 -28 -5 0 -10 -9 -10 -20 0 -11 -4 -20 -10 -20 -5 0 -10 -13 -10 -30 0 -16
-5 -30 -11 -30 -6 0 -9 -9 -6 -20 3 -14 0 -20 -10 -20 -11 0 -14 -8 -11 -29 3
-18 0 -29 -6 -28 -6 1 -12 -8 -14 -21 -2 -13 -10 -26 -17 -28 -8 -3 -11 -12
-8 -20 3 -8 0 -14 -6 -14 -6 0 -11 -8 -11 -18 0 -10 -9 -24 -20 -32 -11 -8
-20 -22 -20 -31 0 -9 -7 -20 -16 -23 -13 -5 -14 -9 -4 -21 9 -11 10 -15 1 -15
-15 0 -41 -25 -41 -40 0 -6 -12 -23 -27 -38 -16 -15 -34 -40 -42 -55 -8 -15
-20 -27 -26 -27 -7 0 -36 -22 -64 -50 -28 -27 -56 -50 -61 -50 -5 0 -26 -16
-46 -35 -19 -19 -49 -42 -65 -52 -16 -10 -29 -21 -29 -25 0 -4 -8 -8 -18 -8
-10 0 -24 -9 -32 -20 -8 -11 -21 -20 -29 -20 -7 0 -22 -9 -32 -21 -10 -11 -22
-18 -27 -15 -6 3 -12 0 -15 -8 -3 -8 -16 -16 -29 -18 -13 -2 -22 -9 -21 -15 2
-7 -4 -10 -12 -7 -8 3 -21 -1 -30 -10 -9 -8 -22 -13 -29 -10 -8 3 -26 -2 -40
-11 -25 -17 -26 -17 -26 3 0 12 5 24 10 27 6 3 10 15 10 26 0 10 5 19 10 19 6
0 10 14 10 30 0 17 5 30 10 30 6 0 10 7 10 15 0 8 5 24 10 35 6 11 15 29 20
40 6 12 8 25 5 29 -3 5 2 11 10 15 9 3 15 18 15 36 0 16 5 30 10 30 6 0 10 12
10 26 0 14 6 32 14 40 8 7 12 23 9 34 -3 12 0 20 6 20 7 0 11 8 10 18 -4 41 2
62 17 62 8 0 12 5 9 11 -13 20 -12 58 1 63 8 3 14 20 14 41 0 20 7 43 15 51
11 11 12 21 5 40 -9 21 -7 27 8 31 15 3 18 13 15 49 -2 30 1 50 11 60 9 8 12
22 9 31 -11 28 -7 74 6 82 8 5 13 36 14 87 1 47 6 78 12 77 11 -2 12 78 1 95
-3 6 -2 13 2 16 5 3 7 16 5 29 -3 16 1 26 11 30 18 7 21 -4 5 -20 -8 -8 -7
-13 2 -18 7 -5 10 -4 6 2 -4 6 -1 16 7 22 10 9 15 8 19 -3 4 -9 2 -18 -4 -21
-5 -4 -7 -11 -3 -16 4 -6 14 -3 27 8 13 12 17 13 11 3 -13 -22 -13 -280 0
-272 7 4 7 1 0 -9 -6 -8 -11 -41 -10 -74 1 -55 -1 -61 -24 -72 -21 -11 -21
-12 -3 -7 12 2 24 0 28 -6 4 -6 3 -10 -2 -9 -20 3 -27 -2 -13 -11 11 -8 9 -9
-12 -6 -22 4 -26 1 -21 -12 6 -14 4 -15 -9 -4 -13 11 -16 10 -14 -5 0 -10 -5
-18 -13 -18 -17 0 -23 -42 -7 -48 6 -2 34 -3 62 -2 43 1 51 -2 47 -14 -4 -13
-1 -12 10 2 15 17 33 24 23 8 -4 -5 3 -7 14 -4 11 3 17 10 13 17 -4 6 0 5 9
-2 9 -7 25 -12 35 -10 11 2 17 -2 15 -12 -2 -11 1 -10 12 3 9 12 16 14 21 8 4
-8 12 -8 24 -1 10 5 21 6 25 2 4 -3 11 0 16 8 6 10 10 11 10 3 0 -7 6 -10 13
-7 15 5 19 34 5 34 -5 0 -6 5 -3 10 3 6 -3 10 -15 10 -12 0 -18 4 -15 10 4 7
-5 9 -24 5 -23 -4 -31 -1 -31 9 0 12 -26 31 -40 28 -3 0 -5 91 -5 203 0 112 2
202 6 200 3 -2 6 2 6 10 0 8 -4 12 -9 9 -4 -3 -8 -1 -8 5 0 5 5 13 10 16 6 3
10 12 10 18 0 7 -4 6 -10 -3 -5 -8 -10 -13 -11 -10 0 3 -2 13 -4 22 -2 10 1
20 5 23 5 3 -2 16 -16 30 -13 13 -24 28 -24 33 0 4 -16 16 -36 25 -20 10 -32
22 -28 28 4 8 0 7 -15 0 -17 -10 -22 -9 -27 4 -5 12 -10 13 -20 5 -10 -9 -16
-5 -28 17 -9 18 -11 35 -6 43 4 7 6 23 4 34 -8 32 -8 105 -1 112 3 3 3 12 1
19 -7 17 22 23 64 14 17 -4 32 -3 32 2z m-3540 -22 c0 8 5 9 19 2 10 -6 21 -8
24 -5 2 3 135 4 293 4 371 -2 384 -3 384 -12 0 -4 -7 -8 -15 -8 -7 0 -18 -7
-23 -16 -7 -13 -13 -14 -30 -5 -15 8 -23 8 -28 -1 -4 -6 -3 -8 2 -5 6 3 16 2
24 -3 13 -8 12 -12 -2 -27 -11 -11 -18 -13 -18 -5 0 7 -4 12 -9 12 -6 0 -8 -9
-6 -21 3 -16 1 -18 -9 -10 -10 9 -13 6 -11 -14 2 -14 -1 -23 -6 -19 -5 3 -12
-3 -16 -13 -4 -10 -15 -24 -25 -31 -10 -7 -16 -17 -13 -22 9 -14 -14 -52 -26
-44 -7 4 -7 -1 0 -15 9 -17 9 -20 -3 -15 -11 4 -14 -1 -11 -23 2 -18 -4 -36
-18 -52 -12 -13 -16 -21 -9 -17 6 4 12 2 12 -4 0 -6 5 -8 12 -4 7 5 8 3 4 -5
-5 -7 -14 -10 -22 -7 -11 4 -12 1 -5 -12 6 -11 6 -24 0 -34 -6 -11 -5 -19 1
-23 7 -5 5 -12 -7 -21 -17 -12 -16 -13 5 -9 19 3 22 2 13 -9 -7 -8 -10 -20 -9
-27 2 -8 -3 -13 -9 -11 -7 1 -13 -3 -13 -9 0 -6 8 -8 18 -5 16 6 19 1 18 -33
-1 -22 1 -38 4 -35 2 3 10 -16 17 -42 9 -38 9 -52 0 -64 -10 -13 -10 -13 3 -4
11 9 18 9 27 -1 8 -9 9 -16 3 -20 -6 -3 -10 -12 -9 -18 0 -9 2 -9 6 1 2 6 10
12 15 12 6 0 9 -3 5 -6 -3 -3 -1 -11 4 -18 5 -6 17 -20 25 -31 9 -11 12 -13 8
-5 -4 8 6 2 22 -15 16 -16 29 -33 27 -36 -2 -4 8 -10 22 -13 14 -4 25 -13 25
-21 0 -8 3 -14 8 -14 4 1 14 1 22 0 13 -1 13 -2 0 -11 -11 -8 -7 -9 14 -4 21
5 27 4 22 -5 -4 -6 -3 -11 3 -11 5 0 11 3 14 8 2 4 2 1 0 -7 -2 -8 2 -11 12
-7 8 3 15 1 15 -4 0 -6 -6 -10 -12 -10 -7 0 -2 -8 12 -18 17 -11 24 -24 22
-40 -2 -13 2 -29 8 -37 6 -8 9 -19 6 -24 -4 -5 -2 -12 3 -16 6 -3 8 -12 4 -20
-3 -9 -1 -21 5 -28 5 -6 12 -25 15 -42 12 -63 21 -90 33 -102 7 -7 10 -22 7
-33 -3 -12 0 -20 7 -20 7 0 10 -6 7 -14 -3 -8 1 -22 8 -33 8 -10 15 -26 15
-36 0 -10 7 -20 15 -23 11 -5 12 -10 5 -18 -7 -9 -4 -19 10 -34 18 -19 18 -22
4 -36 -15 -15 -8 -22 19 -17 5 1 6 -8 2 -19 -4 -14 -1 -22 10 -26 9 -4 14 -13
11 -21 -3 -7 0 -16 7 -19 22 -8 18 -44 -4 -44 -11 0 -18 4 -15 9 8 13 -20 21
-31 10 -7 -7 -16 -5 -26 5 -9 9 -23 16 -31 16 -9 0 -16 6 -16 14 0 9 -7 12
-20 9 -11 -3 -20 0 -20 6 0 6 -9 11 -20 11 -11 0 -20 4 -20 8 0 5 -18 18 -40
31 -22 12 -40 26 -40 32 0 5 -9 9 -20 9 -11 0 -25 9 -32 20 -7 11 -18 20 -25
20 -7 0 -30 18 -52 40 -22 22 -45 40 -51 40 -7 0 -32 20 -56 44 -24 25 -57 53
-74 62 -16 10 -30 24 -30 31 0 7 -13 26 -30 41 -16 16 -30 34 -30 41 0 6 -8
19 -17 29 -27 26 -46 69 -38 81 3 6 1 10 -5 9 -7 -2 -24 19 -38 47 -15 27 -30
51 -34 53 -5 2 -8 12 -8 23 0 10 -4 19 -10 19 -5 0 -10 11 -10 24 0 14 -5 28
-11 32 -6 3 -9 15 -6 25 3 11 1 17 -3 14 -5 -3 -14 12 -19 33 -6 20 -17 46
-25 57 -9 11 -16 31 -16 45 0 27 -22 95 -33 106 -4 4 -7 20 -7 35 0 15 -4 31
-10 34 -5 3 -10 22 -10 41 0 19 -4 34 -9 34 -5 0 -12 21 -15 48 -11 100 -19
137 -29 150 -5 7 -7 15 -4 19 4 3 2 14 -3 24 -6 11 -7 20 -1 24 12 7 -7 65
-21 65 -5 0 -6 5 -2 12 4 6 6 29 6 51 -2 48 5 62 24 46 11 -9 14 -9 14 0z
m716 -191 c-1 -13 3 -26 9 -30 7 -5 6 -8 -1 -8 -7 0 -10 -12 -7 -27 5 -36 5
-40 1 -85 -3 -21 -1 -38 4 -38 4 0 4 -10 -1 -23 -5 -14 -5 -30 0 -40 7 -11 6
-17 -1 -17 -7 0 -8 -6 -1 -18 7 -13 6 -23 -2 -31 -9 -10 -9 -12 3 -9 10 2 15
-5 16 -23 1 -15 4 -34 7 -43 3 -8 3 -17 -1 -20 -13 -8 -6 -56 10 -75 9 -11 12
-24 8 -31 -4 -7 -5 -21 -2 -33 3 -13 1 -18 -6 -13 -8 5 -10 2 -6 -8 3 -9 11
-13 17 -9 6 3 7 1 3 -5 -5 -9 -14 -7 -31 5 -14 10 -25 22 -25 26 0 5 -6 5 -12
1 -7 -4 -10 -4 -6 1 4 4 -1 19 -12 33 -11 13 -17 28 -14 33 3 5 0 9 -5 9 -6 0
-11 9 -11 20 0 11 -6 20 -12 21 -7 0 -4 4 7 9 20 8 20 9 -1 9 -17 1 -21 7 -19
26 2 14 -2 25 -8 25 -5 0 -7 3 -4 7 4 3 2 12 -5 20 -8 10 -8 12 4 8 9 -4 15 0
15 9 0 8 -4 13 -9 10 -4 -3 -8 -2 -9 3 0 4 -2 16 -4 26 -2 9 1 15 5 12 5 -3
11 -1 15 5 3 5 -2 10 -12 11 -11 0 -13 3 -5 6 6 2 9 10 5 16 -11 19 -10 45 2
41 6 -3 11 5 12 16 1 13 -2 18 -10 13 -7 -4 -7 -1 1 10 8 9 11 21 7 27 -3 5 2
10 12 10 15 0 16 2 3 10 -12 7 -12 10 -1 10 8 0 11 6 7 15 -3 9 1 18 9 21 8 4
12 10 9 15 -3 5 0 9 5 9 6 0 10 3 9 8 -3 9 25 52 33 52 3 0 6 -10 5 -22z m462
-2095 c-6 -7 -16 -13 -22 -13 -7 0 -6 4 2 9 8 4 13 11 13 15 -3 23 0 30 9 16
5 -9 5 -19 -2 -27z m1570 -61 c-8 -9 -7 -11 7 -6 13 5 16 3 13 -7 -3 -8 -10
-13 -16 -12 -15 3 -23 -25 -10 -33 7 -4 8 -3 4 4 -7 12 5 16 32 13 16 -2 15 4
-3 38 -8 16 -11 31 -8 35 9 9 43 -24 43 -41 0 -8 4 -12 8 -9 4 2 8 -4 8 -14 0
-10 -4 -16 -8 -14 -4 3 -8 1 -8 -5 0 -5 -12 -8 -27 -5 -19 3 -24 1 -14 -5 16
-10 -3 -26 -19 -16 -6 4 -10 3 -9 -2 3 -19 -2 -27 -9 -15 -7 10 -14 10 -37 -2
-30 -16 -45 -13 -45 7 0 9 2 9 8 0 5 -8 12 -8 25 2 16 11 16 13 2 19 -9 3 -14
2 -11 -3 3 -5 -8 -8 -24 -7 -17 0 -30 4 -30 9 0 4 -4 6 -9 2 -5 -3 -13 0 -17
6 -4 8 -3 9 4 5 7 -4 12 -1 12 8 0 8 11 23 25 34 14 11 25 25 25 30 0 6 9 9
20 7 13 -2 20 2 20 11 0 8 4 14 10 14 5 0 7 -8 4 -17 -2 -10 1 -8 8 5 l12 23
12 -23 c9 -16 9 -27 2 -36z m86 -74 c-3 -5 -10 -5 -16 -2 -7 5 -9 1 -5 -9 9
-24 -27 -54 -61 -51 -15 1 -28 3 -29 4 -3 2 -14 6 -29 9 -4 0 -1 8 6 16 8 10
17 12 23 6 8 -8 67 17 67 30 0 3 11 5 24 5 14 0 22 -4 20 -8z m246 -123 c0
-12 -19 -12 -23 0 -4 9 -1 12 9 8 7 -3 14 -7 14 -8z m-1292 -21 c-1 -5 -9 -9
-16 -10 -10 -2 -11 1 -1 12 12 14 24 13 17 -2z m817 -64 c-3 -5 -12 -10 -18
-10 -7 0 -6 4 3 10 19 12 23 12 15 0z m167 -82 c-7 -7 -12 -8 -12 -2 0 14 12
26 19 19 2 -3 -1 -11 -7 -17z m-128 -184 c3 -8 2 -12 -4 -9 -6 3 -10 10 -10
16 0 14 7 11 14 -7z m-274 -45 c0 -6 -4 -7 -10 -4 -5 3 -10 11 -10 16 0 6 5 7
10 4 6 -3 10 -11 10 -16z m-533 -384 c0 -8 -4 -12 -9 -9 -5 3 -6 10 -3 15 9
13 12 11 12 -6z"/>
<path d="M4035 4380 c3 -5 8 -10 11 -10 2 0 4 5 4 10 0 6 -5 10 -11 10 -5 0
-7 -4 -4 -10z"/>
<path d="M3977 4193 c-10 -9 -9 -23 1 -23 5 0 9 7 9 15 0 17 -1 18 -10 8z"/>
<path d="M3979 4108 c-5 -14 -4 -58 1 -58 4 0 7 14 6 30 -1 26 -3 36 -7 28z"/>
<path d="M3956 3882 c-3 -5 1 -9 9 -9 8 0 12 4 9 9 -3 4 -7 8 -9 8 -2 0 -6 -4
-9 -8z"/>
<path d="M4150 3798 c0 -4 4 -8 9 -8 6 0 12 4 15 8 3 5 -1 9 -9 9 -8 0 -15 -4
-15 -9z"/>
<path d="M993 4405 c0 -8 4 -12 9 -9 5 3 6 10 3 15 -9 13 -12 11 -12 -6z"/>
<path d="M936 4007 c3 -10 9 -15 12 -12 3 3 0 11 -7 18 -10 9 -11 8 -5 -6z"/>
<path d="M1070 3786 c0 -2 7 -7 16 -10 8 -3 12 -2 9 4 -6 10 -25 14 -25 6z"/>
<path d="M1130 3736 c0 -2 7 -7 16 -10 8 -3 12 -2 9 4 -6 10 -25 14 -25 6z"/>
<path d="M1091 4207 c2 -1 13 -9 24 -17 19 -14 19 -14 6 3 -7 9 -18 17 -24 17
-6 0 -8 -1 -6 -3z"/>
<path d="M1160 3921 c0 -6 4 -13 10 -16 6 -3 7 1 4 9 -7 18 -14 21 -14 7z"/>
<path d="M1190 3891 c0 -5 5 -13 10 -16 6 -3 10 -2 10 4 0 5 -4 13 -10 16 -5
3 -10 2 -10 -4z"/>
<path d="M3206 2283 c-6 -14 -5 -15 5 -6 7 7 10 15 7 18 -3 3 -9 -2 -12 -12z"/>
<path d="M3261 2283 c7 -12 15 -20 18 -17 3 2 -3 12 -13 22 -17 16 -18 16 -5
-5z"/>
<path d="M3130 2236 c7 -7 13 -7 20 0 6 6 3 10 -10 10 -13 0 -16 -4 -10 -10z"/>
<path d="M3106 2222 c-3 -4 4 -9 15 -9 23 -2 25 3 4 10 -8 4 -16 3 -19 -1z"/>
<path d="M3250 2170 c-22 -22 -29 -23 -47 -9 -7 7 -14 6 -18 -1 -4 -6 -3 -10
2 -9 4 1 10 0 13 -1 22 -10 62 -4 76 11 23 25 -1 34 -26 9z m20 -5 c-7 -9 -15
-13 -19 -10 -3 3 1 10 9 15 21 14 24 12 10 -5z"/>
<path d="M1545 2510 c-4 -6 -10 -8 -15 -5 -5 3 -11 1 -14 -4 -8 -12 14 -8 39
7 11 6 15 12 8 12 -6 0 -15 -5 -18 -10z"/>
<path d="M3552 2465 c4 -4 3 -14 -4 -22 -9 -11 -8 -17 4 -29 13 -13 15 -13 15
0 0 8 -4 13 -9 10 -12 -8 -10 10 3 23 8 8 7 13 -3 18 -7 5 -10 5 -6 0z"/>
<path d="M3615 2380 c-3 -5 -1 -10 4 -10 6 0 11 5 11 10 0 6 -2 10 -4 10 -3 0
-8 -4 -11 -10z"/>
<path d="M3570 2376 c0 -2 7 -9 15 -16 13 -11 14 -10 9 4 -5 14 -24 23 -24 12z"/>
<path d="M1386 2362 c-3 -5 1 -9 9 -9 8 0 12 4 9 9 -3 4 -7 8 -9 8 -2 0 -6 -4
-9 -8z"/>
<path d="M1440 2360 c-9 -6 -10 -10 -3 -10 6 0 15 5 18 10 8 12 4 12 -15 0z"/>
<path d="M1790 2339 c0 -5 5 -7 10 -4 6 3 10 8 10 11 0 2 -4 4 -10 4 -5 0 -10
-5 -10 -11z"/>
<path d="M3616 2327 c3 -10 9 -15 12 -12 3 3 0 11 -7 18 -10 9 -11 8 -5 -6z"/>
<path d="M1433 2305 c0 -8 4 -12 9 -9 5 3 6 10 3 15 -9 13 -12 11 -12 -6z"/>
<path d="M1830 2309 c0 -5 5 -7 10 -4 6 3 10 1 10 -4 0 -6 5 -11 11 -11 8 0 8
5 -1 15 -14 17 -30 20 -30 4z"/>
<path d="M1876 2281 c-4 -6 -3 -11 1 -11 5 0 9 -10 10 -22 2 -22 1 -22 -13 -4
-9 12 -14 15 -14 7 0 -8 8 -20 18 -28 16 -14 16 -14 -2 -9 -16 6 -17 4 -6 -9
10 -12 15 -13 21 -3 4 6 5 16 3 20 -3 4 -1 8 5 8 11 0 9 18 -6 44 -7 12 -13
15 -17 7z"/>
<path d="M1690 2265 c0 -5 5 -17 10 -25 5 -8 10 -10 10 -5 0 6 -5 17 -10 25
-5 8 -10 11 -10 5z"/>
<path d="M1827 2259 c7 -7 15 -10 18 -7 3 3 -2 9 -12 12 -14 6 -15 5 -6 -5z"/>
<path d="M3605 2257 c-18 -14 -14 -37 8 -37 7 0 6 4 -3 10 -13 8 -12 11 5 24
11 9 17 16 14 16 -3 0 -13 -6 -24 -13z"/>
<path d="M1835 2229 c4 -10 2 -20 -4 -24 -6 -3 -11 -11 -11 -18 0 -6 7 -1 16
12 13 17 14 25 5 34 -9 9 -11 8 -6 -4z"/>
<path d="M1850 2190 c0 -5 5 -10 11 -10 5 0 7 5 4 10 -3 6 -8 10 -11 10 -2 0
-4 -4 -4 -10z"/>
<path d="M1613 2165 c0 -7 6 -11 14 -8 7 3 13 6 13 8 0 2 -6 5 -13 8 -8 3 -14
-1 -14 -8z"/>
<path d="M1617 2129 c7 -7 15 -10 18 -7 3 3 -2 9 -12 12 -14 6 -15 5 -6 -5z"/>
<path d="M1636 2095 c-11 -8 -15 -15 -9 -15 6 0 16 7 23 15 16 19 11 19 -14 0z"/>
<path d="M2098 2073 c-6 -7 -8 -16 -5 -20 4 -3 9 2 13 11 6 15 11 13 43 -11
23 -17 30 -20 19 -7 -12 14 -15 24 -8 32 7 9 7 9 -2 2 -15 -12 -31 -13 -24 -2
9 14 -24 10 -36 -5z"/>
<path d="M1435 2060 c-3 -5 -1 -10 4 -10 6 0 11 5 11 10 0 6 -2 10 -4 10 -3 0
-8 -4 -11 -10z"/>
<path d="M1710 2060 c0 -5 5 -10 10 -10 6 0 10 5 10 10 0 6 -4 10 -10 10 -5 0
-10 -4 -10 -10z"/>
<path d="M3573 2045 c0 -8 4 -15 9 -15 4 0 8 4 8 9 0 6 -4 12 -8 15 -5 3 -9
-1 -9 -9z"/>
<path d="M1620 2039 c0 -5 5 -7 10 -4 6 3 10 8 10 11 0 2 -4 4 -10 4 -5 0 -10
-5 -10 -11z"/>
<path d="M1676 2039 c2 -4 -2 -10 -8 -12 -8 -4 -7 -6 3 -6 9 -1 19 5 22 12 3
8 -1 14 -9 14 -7 0 -11 -4 -8 -8z"/>
<path d="M2120 2040 c8 -5 20 -10 25 -10 6 0 3 5 -5 10 -8 5 -19 10 -25 10 -5
0 -3 -5 5 -10z"/>
<path d="M2093 2025 c0 -8 4 -12 9 -9 5 3 6 10 3 15 -9 13 -12 11 -12 -6z"/>
<path d="M1614 2000 c0 -13 4 -16 10 -10 7 7 7 13 0 20 -6 6 -10 3 -10 -10z"/>
<path d="M1963 2013 c-7 -2 -13 -12 -13 -21 0 -13 3 -12 15 4 13 16 16 17 26
4 9 -12 10 -12 7 -1 -5 17 -17 22 -35 14z"/>
<path d="M2285 1999 c-11 -16 -1 -19 13 -3 7 8 8 14 3 14 -5 0 -13 -5 -16 -11z"/>
<path d="M1650 1980 c-9 -6 -10 -10 -3 -10 6 0 15 5 18 10 8 12 4 12 -15 0z"/>
<path d="M2015 1980 c3 -5 8 -10 11 -10 2 0 4 5 4 10 0 6 -5 10 -11 10 -5 0
-7 -4 -4 -10z"/>
<path d="M1671 1966 c-9 -11 -9 -16 1 -22 7 -4 10 -4 6 1 -4 4 -3 14 3 22 6 7
9 13 6 13 -2 0 -10 -6 -16 -14z"/>
<path d="M1616 1962 c-3 -4 4 -9 15 -9 23 -2 25 3 4 10 -8 4 -16 3 -19 -1z"/>
<path d="M2279 1953 c-13 -17 -13 -17 6 -3 11 8 22 16 24 17 2 2 0 3 -6 3 -6
0 -17 -8 -24 -17z"/>
<path d="M1940 1945 c0 -2 6 -8 13 -14 10 -8 14 -7 14 2 0 8 -6 14 -14 14 -7
0 -13 -1 -13 -2z"/>
<path d="M3455 1940 c3 -5 8 -10 11 -10 2 0 4 5 4 10 0 6 -5 10 -11 10 -5 0
-7 -4 -4 -10z"/>
<path d="M1895 1930 c-2 -3 0 -11 4 -18 5 -8 10 -6 18 7 9 14 8 18 -3 18 -8 0
-17 -3 -19 -7z"/>
<path d="M3442 1924 c10 -10 20 -16 22 -13 3 3 -5 11 -17 18 -21 13 -21 12 -5
-5z"/>
<path d="M3175 1909 c-4 -6 -5 -12 -2 -15 2 -3 7 2 10 11 7 17 1 20 -8 4z"/>
<path d="M1622 1897 c10 -8 15 -17 11 -21 -4 -4 1 -4 10 0 20 7 20 7 -13 23
-22 11 -23 10 -8 -2z"/>
<path d="M1875 1900 c-3 -5 -1 -10 4 -10 6 0 11 5 11 10 0 6 -2 10 -4 10 -3 0
-8 -4 -11 -10z"/>
<path d="M3110 1901 c0 -6 4 -13 10 -16 6 -3 7 1 4 9 -7 18 -14 21 -14 7z"/>
<path d="M3193 1885 c0 -8 4 -12 9 -9 5 3 6 10 3 15 -9 13 -12 11 -12 -6z"/>
<path d="M3311 1867 c-13 -21 -12 -21 5 -5 10 10 16 20 13 22 -3 3 -11 -5 -18
-17z"/>
<path d="M3346 1878 c3 -5 10 -6 15 -3 13 9 11 12 -6 12 -8 0 -12 -4 -9 -9z"/>
<path d="M1621 1834 c0 -11 3 -14 6 -6 3 7 2 16 -1 19 -3 4 -6 -2 -5 -13z"/>
<path d="M1845 1820 c-3 -5 -2 -10 4 -10 5 0 13 5 16 10 3 6 2 10 -4 10 -5 0
-13 -4 -16 -10z"/>
<path d="M1870 1805 c0 -7 30 -13 34 -7 3 4 -4 9 -15 9 -10 1 -19 0 -19 -2z"/>
<path d="M1610 1743 c0 -6 7 -16 15 -23 8 -7 12 -17 8 -23 -4 -6 -1 -7 6 -3 9
6 8 13 -6 29 -10 12 -19 24 -20 26 -2 2 -3 0 -3 -6z"/>
<path d="M3147 1733 c3 -7 6 -13 8 -13 2 0 5 6 8 13 3 8 -1 14 -8 14 -7 0 -11
-6 -8 -14z"/>
<path d="M1855 1700 c-4 -6 -1 -9 7 -8 7 2 12 -3 10 -10 -1 -8 2 -11 8 -7 8 5
7 11 -1 21 -14 17 -16 17 -24 4z"/>
<path d="M3186 1702 c-3 -5 1 -9 9 -9 8 0 12 4 9 9 -3 4 -7 8 -9 8 -2 0 -6 -4
-9 -8z"/>
<path d="M1626 1638 c3 -5 10 -6 15 -3 13 9 11 12 -6 12 -8 0 -12 -4 -9 -9z"/>
<path d="M2937 1623 c-11 -11 3 -22 20 -16 12 5 14 3 8 -7 -5 -9 -4 -11 3 -6
7 4 12 9 12 11 0 8 -38 24 -43 18z"/>
<path d="M3195 1621 c-3 -5 0 -13 6 -17 7 -4 9 -3 5 4 -3 5 0 13 6 15 9 4 10
6 1 6 -6 1 -14 -3 -18 -8z"/>
<path d="M3233 1605 c0 -8 4 -12 9 -9 5 3 6 10 3 15 -9 13 -12 11 -12 -6z"/>
<path d="M1855 1601 c-3 -5 -2 -12 3 -15 5 -3 9 1 9 9 0 17 -3 19 -12 6z"/>
<path d="M2910 1600 c0 -5 5 -10 11 -10 5 0 7 5 4 10 -3 6 -8 10 -11 10 -2 0
-4 -4 -4 -10z"/>
<path d="M3255 1580 c-3 -5 -1 -10 4 -10 6 0 11 5 11 10 0 6 -2 10 -4 10 -3 0
-8 -4 -11 -10z"/>
<path d="M2990 1556 c0 -2 8 -10 18 -17 15 -13 16 -12 3 4 -13 16 -21 21 -21
13z"/>
<path d="M3230 1551 c0 -5 7 -12 16 -15 14 -5 15 -4 4 9 -14 17 -20 19 -20 6z"/>
<path d="M2996 1502 c-3 -4 4 -9 15 -9 23 -2 25 3 4 10 -8 4 -16 3 -19 -1z"/>
<path d="M3255 1500 c-3 -5 -1 -10 4 -10 6 0 11 5 11 10 0 6 -2 10 -4 10 -3 0
-8 -4 -11 -10z"/>
<path d="M2268 1493 c7 -3 16 -2 19 1 4 3 -2 6 -13 5 -11 0 -14 -3 -6 -6z"/>
<path d="M3240 1477 c0 -2 6 -10 14 -16 11 -9 16 -9 22 1 4 7 4 10 -1 6 -4 -4
-14 -3 -22 3 -7 6 -13 9 -13 6z"/>
<path d="M2230 1460 c-8 -5 -10 -10 -5 -10 6 0 17 5 25 10 8 5 11 10 5 10 -5
0 -17 -5 -25 -10z"/>
<path d="M3290 1439 c0 -5 5 -7 10 -4 6 3 10 8 10 11 0 2 -4 4 -10 4 -5 0 -10
-5 -10 -11z"/>
<path d="M3032 1427 c-8 -10 -6 -13 11 -14 12 0 16 1 9 4 -6 3 -10 9 -6 14 8
14 -2 11 -14 -4z"/>
<path d="M3270 1420 c0 -5 5 -10 11 -10 5 0 7 5 4 10 -3 6 -8 10 -11 10 -2 0
-4 -4 -4 -10z"/>
<path d="M2150 1406 c0 -2 7 -7 16 -10 8 -3 12 -2 9 4 -6 10 -25 14 -25 6z"/>
<path d="M3035 1370 c-3 -5 -1 -10 4 -10 6 0 11 5 11 10 0 6 -2 10 -4 10 -3 0
-8 -4 -11 -10z"/>
<path d="M3251 1366 c-9 -11 -9 -16 1 -22 7 -4 10 -4 6 1 -4 4 -3 14 3 22 6 7
9 13 6 13 -2 0 -10 -6 -16 -14z"/>
<path d="M2099 1353 c-13 -17 -13 -17 6 -3 11 8 22 16 24 17 2 2 0 3 -6 3 -6
0 -17 -8 -24 -17z"/>
<path d="M3015 1340 c-3 -5 -1 -10 4 -10 6 0 11 5 11 10 0 6 -2 10 -4 10 -3 0
-8 -4 -11 -10z"/>
<path d="M3034 1312 c3 -5 0 -13 -6 -15 -9 -4 -10 -6 -1 -6 17 -1 25 16 12 25
-7 4 -9 3 -5 -4z"/>
<path d="M2985 1280 c-3 -6 1 -7 9 -4 18 7 21 14 7 14 -6 0 -13 -4 -16 -10z"/>
<path d="M3225 1264 c3 -31 21 -52 21 -25 0 11 -5 17 -10 14 -5 -4 -7 1 -3 10
3 9 2 19 -3 22 -4 3 -7 -6 -5 -21z"/>
<path d="M3273 1275 c0 -8 4 -12 9 -9 5 3 6 10 3 15 -9 13 -12 11 -12 -6z"/>
<path d="M3000 1255 c-7 -9 -11 -17 -9 -20 3 -2 10 5 17 15 14 24 10 26 -8 5z"/>
<path d="M3217 1209 c4 -13 8 -18 11 -10 2 7 -1 18 -6 23 -8 8 -9 4 -5 -13z"/>
<path d="M1626 642 c-24 -3 -27 -7 -23 -28 2 -13 1 -24 -2 -24 -3 0 -6 -16 -6
-35 0 -19 3 -35 7 -35 4 0 5 -6 2 -14 -7 -18 -10 -106 -4 -106 7 0 5 -59 -2
-66 -4 -3 -2 -19 2 -35 5 -17 5 -29 0 -29 -6 0 -6 -10 0 -25 5 -14 5 -27 0
-30 -5 -3 -5 -18 0 -35 5 -18 5 -30 0 -30 -6 0 -6 -10 0 -25 6 -15 6 -26 -1
-30 -5 -4 -7 -11 -3 -16 3 -6 6 -26 6 -45 l0 -34 878 0 878 0 4 30 c3 17 1 30
-3 30 -4 0 -4 14 1 30 5 17 5 30 0 30 -5 0 -5 12 -1 28 4 15 4 39 0 54 -4 16
-4 28 1 28 5 0 5 12 1 27 -4 14 -4 48 -1 75 4 26 3 48 -1 48 -4 0 -4 14 1 30
5 17 5 30 0 30 -5 0 -5 12 -1 28 4 15 4 39 0 55 -4 15 -3 27 2 27 4 0 6 6 3
13 -3 8 -6 27 -7 42 -2 22 -9 30 -30 36 -15 4 -27 4 -27 1 0 -4 -13 -7 -30 -7
-16 0 -30 3 -30 6 0 4 -16 3 -35 -1 -19 -4 -35 -4 -35 1 0 4 -10 5 -22 0 -13
-4 -35 -5 -50 0 -15 4 -30 4 -33 -1 -3 -5 -16 -5 -30 0 -15 6 -25 6 -25 0 0
-5 -12 -5 -30 0 -17 5 -32 5 -35 0 -3 -5 -16 -5 -30 0 -15 6 -25 6 -25 0 0 -5
-12 -5 -30 0 -17 5 -32 5 -35 0 -3 -5 -16 -5 -30 0 -15 6 -25 6 -25 0 0 -5
-12 -5 -30 0 -17 5 -32 5 -35 0 -3 -5 -16 -5 -30 0 -15 6 -27 6 -30 -1 -4 -5
-11 -7 -16 -3 -13 8 -97 10 -104 2 -3 -3 -22 -2 -41 2 -18 4 -34 4 -34 0 0 -4
-18 -4 -40 0 -22 4 -43 4 -45 0 -3 -4 -21 -4 -40 0 -19 4 -35 4 -35 0 0 -4
-18 -4 -40 0 -22 4 -43 4 -45 0 -3 -4 -21 -4 -40 0 -19 4 -35 4 -35 0 0 -4
-18 -4 -40 0 -22 4 -43 4 -45 0 -3 -4 -21 -4 -40 0 -19 4 -35 5 -35 1 0 -7
-119 -5 -127 3 -3 3 -13 1 -23 -4 -10 -5 -20 -6 -24 -3 -8 8 -112 7 -125 -1
-5 -3 -11 -3 -13 1 -1 5 -16 7 -32 5z"/>
</g>
</svg>
